<svg id="Layer_1" data-name="Layer 1" xmlns="http://www.w3.org/2000/svg" viewBox="0 0 2000 2000"><path d="M706.09,447.49v22.09q0,625.58-.16,1251.13c0,12.51-.63,25.54-4.06,37.43-9.31,32.23-43.07,54.18-75.43,50.79-36.52-3.83-64.56-31.6-67.46-67.08-.56-6.85-.29-13.78-.29-20.67q0-627.29,0-1254.56V443.23c-7.14,6.64-11.7,10.6-15.95,14.87q-74.24,74.45-148.33,149c-21.66,21.93-47.2,30.58-76.89,22.39C268.42,616,248.42,557,278.36,515.68a131.63,131.63,0,0,1,13.75-15.38q140.7-140.82,281.52-281.51C611.56,180.9,652.9,181,691,219Q833.7,361.52,976.12,504.26C1015,543.4,1005.6,602.78,958,625.41c-28.9,13.74-61.09,8-85.42-16.24Q797.47,534.38,723,459c-4.35-4.39-7.37-10.09-11-15.19Z"/><path d="M1294,1556.92v-25.23q0-626.39.17-1252.78c0-12.49.71-25.53,4.24-37.38,9.61-32.29,43.32-53.82,75.78-50.16,36.67,4.13,64.19,31.78,66.94,67.53.53,6.86.26,13.78.26,20.67q0,626.4,0,1252.78v24.73c6.56-6,11-9.8,15-13.89,50.7-50.85,101.07-102,152.11-152.54,31.38-31,79.14-30.32,107.66.53,26.75,29,26.09,72.88-2.44,102.82-21.39,22.45-43.72,44-65.66,65.94q-110.3,110.28-220.61,220.52c-38.78,38.72-80.26,38.84-118.89.26q-142-141.88-283.91-284c-29.89-30-33.16-70.85-8.92-101.11,27.93-34.85,78-37.77,110.86-5.36,50.7,50,100.68,100.8,151,151.22C1281.92,1545.81,1286.47,1549.86,1294,1556.92Z"/></svg>