<svg id="Layer_1" data-name="Layer 1" xmlns="http://www.w3.org/2000/svg" viewBox="0 0 1444.54 1834.5"><path d="M1157.72,390.13c65.21,21.41,123.85,52.19,175.26,95.44,127,106.82,191.48,243.94,194.33,409.48,1.49,86.85,2.75,173.85-.41,260.62-3.21,88,23,165.9,71.78,236.75,27.69,40.27,59,78.24,90.88,115.37,28.71,33.43,40.21,69.26,21.87,110.19s-52.79,57-96.86,56.8c-103-.53-206-.17-309-.17h-24.83c-13.84,86.38-55.37,155-129.34,202.05-52.62,33.5-110.69,47.09-172.5,41.45-115.44-10.53-228-93.75-252.13-243.5h-22c-107.93,0-215.85-.31-323.77.15-44.18.19-78.27-16.56-96.4-57.49-17.78-40.16-7.68-76.32,21.62-108.21,55.72-60.61,105.66-125.22,137.41-202.19,16.47-39.94,25.52-81.15,25.29-124.61-.5-93.19-.27-186.38-.12-279.57.38-233.28,136-426.8,355.66-506.88,11.26-4.1,14.61-9.66,14.43-21.19-.65-42-.5-84.08-.2-126.11C839.32,155.77,908,85.08,997.44,84.85c90.69-.24,159.62,70.31,160.23,164.35C1158,295.41,1157.72,341.62,1157.72,390.13ZM997.54,1607.33q309,0,618,.1c14.8,0,28.07-1.62,35.31-16.86,7.54-15.89-2.09-26.2-11.18-37.31-29.25-35.74-60-70.45-86.66-108-62.71-88.5-98.46-185.45-93.44-296.49,3.61-79.71,1.43-159.71.35-239.57-.44-32.09-2.69-64.46-7.75-96.13-39.5-247.36-291-421.48-537-372.52-225.89,45-378.45,230.4-379.09,461.1-.25,91.77.1,183.55-.17,275.33,0,18.17-.38,36.5-2.76,54.47-12,90.86-54.65,168.35-108.46,240.28-22.61,30.22-49.1,57.53-72.15,87.45-5.82,7.56-9.89,22.34-6.32,29.7,4.13,8.52,17.2,13.33,27.18,18.09,4.57,2.18,11,.41,16.64.41Zm-200.25,68.33c10,102.28,110.56,181.43,222.06,175.68,94.81-4.88,189.77-92.91,189.36-175.68Zm293.1-1306.18c0-40.78.65-83.33-.17-125.86-1-52.71-40.85-91.77-92.16-91.75s-91,39.32-92,91.93c-.71,39.16-.21,78.35-.06,117.53a31.34,31.34,0,0,0,1.47,8.15Z" transform="translate(-275.75 -84.85)"/></svg>