<svg id="Layer_1" data-name="Layer 1" xmlns="http://www.w3.org/2000/svg" viewBox="0 0 1098.39 1568.92"><path d="M514.69,698.61c-15.35-5.13-30.14-7.86-42.65-14.73-25.53-14-38.73-36.89-39-66.31-.33-36.78-.25-73.57-.14-110.36.18-54.24,28.26-83.9,85-87.6,6.12-30.23,12.4-61.14,18.63-92.06,2.55-12.61,4.88-25.25,7.51-37.84,8.79-42.08,39.48-67,82.79-65.06,84.51,3.82,169,8.56,253.45,13.12q188.22,10.17,376.43,20.6c28.16,1.54,56.34,2.59,84.48,4.37,43.53,2.75,68.7,23.45,79.87,65.55,7.06,26.63,13.07,53.55,20.85,79.95,1.46,4.95,8.75,11,13.92,11.62,46.21,5.28,74.53,35.24,75.11,81.82.44,35.56.21,71.12.07,106.68-.19,50.77-23.53,78.06-73.75,86.64-2.32.39-4.63.9-8.33,1.62q-7.17,65.89-14.31,131.46-21.49,200.13-42.9,400.27-21.08,197.42-42,394.83c-4.74,44.48-9.43,89-14.55,133.4-2.85,24.8-17.84,36.76-46,36.79q-165.54.21-331.1.07-139.78,0-279.59,0c-34.76,0-46.74-10.37-50.37-44.14q-29.49-274.15-58.72-548.33-25.9-242.18-51.85-484.36C516.8,710,515.45,703.4,514.69,698.61Zm746,1016c36.49-340.13,72.79-678.52,109.22-1018.17H594q54.76,510.39,109.25,1018.17ZM1452.33,499.91H512.17V614.7h940.16Zm-853.9-81h764.5c-5.38-21.08-11.47-40.42-14.94-60.21-2.42-13.78-9.1-17.77-22-18.34-53.88-2.4-107.73-5.51-161.59-8.46Q976.19,321.66,788,311.29c-55-3-110-5.76-166.56-8.71Z" transform="translate(-432.8 -224.54)"/></svg>