<svg id="Layer_1" data-name="Layer 1" xmlns="http://www.w3.org/2000/svg" viewBox="0 0 1781.81 1132.18"><path d="M1890.83,650.51c0-128.85-87.95-216.54-217.09-216.56q-673.68-.07-1347.35,0C197,434,109.23,521.34,109.17,650.3q-.17,349,0,698c0,130.59,87.36,217.69,218.18,217.72q336.27.09,672.52,0,337.41,0,674.83,0c127.73-.06,216.06-88,216.13-215.19Q1891,1000.69,1890.83,650.51Zm-120.69,707.25c-.39,52.5-34.88,87.55-87.14,87.56q-683,.27-1366,0c-50.43,0-86.71-34.08-86.94-83-.64-134.51-.2-269-.14-403.54,0-2.24.62-4.47,1.19-8.27H1770.22V1214C1770.22,1261.9,1770.49,1309.83,1770.14,1357.76Zm.18-526.61H229.7V665.05c-7-53.57,17.22-96.07,63.82-107.65,10.31-2.56,21.41-2.72,32.14-2.72q674.83-.2,1349.69-.09c61.56,0,94.27,32.1,94.85,92.73h.12Z" transform="translate(-109.09 -433.91)"/></svg>