<svg id="Layer_1" data-name="Layer 1" xmlns="http://www.w3.org/2000/svg" viewBox="0 0 1018.82 1782.08"><path d="M1026.11,107.13c9.82,5.75,20.5,10.43,29.29,17.46,17.47,14,23.87,33.38,23.76,55.45-.22,42.24-.06,84.49-.06,124.66,46,9.48,90.59,16.42,133.91,28.11,80,21.58,151.31,61.13,214.37,114.72,28,23.76,34.43,55.61,24,90.15-11.39,37.88-37.78,60.12-76.49,67.28-26.1,4.83-49-3.09-70-18.71-61-45.14-128.73-75.32-202.93-91.05-3.4-.72-6.82-1.36-10.26-1.87-2.83-.42-5.7-.61-10.94-1.14v17.42c0,120.08.25,240.16-.34,360.24-.06,13.71,4.53,18.71,17.28,22.29,82,23.08,163.41,48.07,237.33,92.14,79.68,47.5,140,111.36,162.81,203.44,45.21,182.87-24.13,386.6-232.81,467.74-55,21.39-112.22,32.54-170.73,38-3.93.37-7.83,1-13.54,1.71,0,20.3.15,39.88,0,59.45-.23,24.34.91,48.84-1.5,73-3.84,38.52-34.4,63.12-73.1,61.51-37.48-1.56-66.33-30.44-67-68.73-.74-40.53-.17-81.08-.17-121.47-35.68-4.91-70.26-8.25-104.28-14.58C715,1662.1,610.18,1608.89,519.14,1528.61c-33.3-29.37-35.7-84.56-7.19-122.07,30-39.48,78.82-50.23,118.49-24.73,21.41,13.77,40.93,30.44,62,44.72,69.21,46.79,145.59,75.75,227.77,89.8a83.9,83.9,0,0,0,10.38,1.05c1.64.07,3.31-.54,7.09-1.24v-16.73c0-137.48-.29-275,.42-412.44.08-14.93-5.41-19.45-18.41-23.09-80.35-22.47-160.51-45.68-233.84-87C605.33,931.45,544,869,523.41,776.42,492,635.16,528.09,513.17,638.83,417.27c80.45-69.67,177.27-100.88,281.56-111,14.88-1.45,18-6.72,17.6-20.18-.87-29,1.24-58.1-.62-87-2.8-43.56,11.48-75.65,53.93-92Zm55.67,1412.07c89.8-5.45,175.67-53.43,206.08-126.51,27.15-65.24,28.08-130.13-21.3-185.78-48.45-54.59-116.51-74-184.78-94.36ZM937.63,850.34v-367c-9.91,1.28-18.55,2.08-27.08,3.54C845.09,498.18,786.63,522.2,748,579.88c-40.14,59.89-36.65,141.21,8.77,185C807,813.33,872.49,830.28,937.63,850.34Z" transform="translate(-492.23 -107.13)"/></svg>