<svg id="Layer_1" data-name="Layer 1" xmlns="http://www.w3.org/2000/svg" viewBox="0 0 1488.94 1850.58"><path d="M1344.35,70.43c11.32,3.62,22.75,6.92,33.94,10.92,49.06,17.53,74.18,55,70.73,107-3.38,50.81-25.61,95.17-52.15,136.9-27.71,43.56-58.64,85.06-88.77,128.35,17.4-6.78,34.59-14.2,52.26-20.22,38.73-13.18,78.26-20,118.64-8.38,42.64,12.25,72.36,40.15,89.52,80.43,15.76,37,6.45,72-22.12,97.17-25.25,22.27-56.19,38.26-85.36,55.8-10.92,6.57-23.91,9.68-35.33,18.4h16.93q127.42,0,254.85,0c32.21,0,40.36,8.27,40.38,40.74q.08,132.82,0,265.65c0,33-8.47,41.17-42.13,41.22-21.59,0-43.17,0-67.38,0v22.29c0,48.19.07,96.38-.08,144.56,0,7.19,1.42,16.32-2.28,21.11-6.32,8.2-16,18.68-24.58,18.89s-19-9.65-25.4-17.69c-4.07-5.15-2.85-15-2.88-22.75-.2-54.71-.11-109.41-.11-165.26H1139.37v839.21H1572c.32-7.12,1-14.64,1-22.15q.08-263.84.11-527.68c0-7.77.23-15.71,1.77-23.29,2.93-14.35,12.61-21.78,27.13-21.21,13.65.53,22.39,8.2,24.85,21.79a110.41,110.41,0,0,1,1.45,19.75q.1,283.71,0,567.43c0,33.9-7.75,41.55-41.49,41.55H399.37c-33.17,0-41.32-8.24-41.32-41.89q0-415.63,0-831.27v-23.39c-24.86,0-48.16.11-71.46,0-28.43-.16-37.53-9.38-37.55-38.24q-.11-135.54,0-271.07c0-29.4,8.43-38.15,37.13-38.24,49.4-.15,98.81-.25,148.21.07,22.62.15,35,12.65,31.75,31.52-3,17.55-15.72,23.07-31.66,23.15-36.15.19-72.3.07-108.44.07-6.56,0-13.12,0-21,0V968.26H847.4V731.68H828.45q-140.09,0-280.15,0c-5.42,0-10.89.3-16.26-.23-16.94-1.68-27.51-12.66-27.27-27.88.23-15.43,10.68-26,28.2-26.44,26.49-.67,53-.26,79.52-.31,5.76,0,11.51,0,18.17-3.71-11.37-4.53-23.23-8.12-34-13.78-23.36-12.24-48-23.14-68.85-38.85-62.26-46.78-63.32-113.66-5.13-165.59,38.94-34.74,84.65-41.94,133.26-31.47,30.8,6.63,60.48,18.43,93.12,28.69-8.59-10.91-16.57-20.8-24.28-30.88C684.12,368.05,644.63,314,621.35,250.52A250.46,250.46,0,0,1,606.76,184c-3.69-48.63,22.32-85.37,69.16-102.38,11.74-4.26,23.85-7.51,35.8-11.22h47c75,17.62,121,69.17,157.44,132.79C959.6,279,986.25,361.07,1008,445c6.63,25.54,12.5,51.27,19.9,81.75,2.69-11.67,4.22-18.07,5.65-24.49,20.19-91.13,45.22-180.83,87.14-264.64,38.4-76.79,84.84-146.26,176.63-167.2ZM847.52,1865.27v-840H414.43v840Zm234.9-839.56h-178v839.51h178Zm598.81-57V733.13H1139.6V968.72ZM988.59,629.51c-1.24-10.79-1.37-16.11-2.51-21.21-15.29-68-28.7-136.47-46.66-203.75-19.58-73.37-46.66-144.3-91.59-206.65-25.41-35.25-55-68.32-101.64-71.11-66.15-4-102.93,24.43-78.08,92.59a413.6,413.6,0,0,0,32.36,68.25C761.82,391.58,843.15,479.57,926,566.2,945.39,586.45,965.41,606.09,988.59,629.51Zm77.07-.64c26.24-25.92,49.47-47.71,71.41-70.73,80.65-84.61,159.35-170.92,219-272.32,18-30.56,35.18-61.95,38.4-98.31,2.51-28.27-7.26-43-32.84-53.27-40.8-16.39-77.72-9.21-111.47,17.9-38.07,30.58-62.44,71.28-83,114.43C1113.21,380.11,1088,501.81,1065.66,628.87Zm16.46,339.81V732.81H904.3V968.68Zm19.32-300.54q1.55,2.45,3.1,4.89a11.09,11.09,0,0,0,3.27.83c108.44-6.86,215.76-20.88,317.74-60.29,28.57-11.05,55.3-28.75,80.06-47.18,17.93-13.35,18.72-29.06,8.78-46.6-11.92-21.06-28.33-39.74-53.15-42.2-22.77-2.26-47-1.16-69.18,4.3-55.68,13.71-104.29,43.44-150,76.84C1194.1,593.74,1148.22,631.55,1101.44,668.14ZM955.83,675c-6.56-7-9-10.35-12.16-12.78-55.75-42.91-110.47-87.26-167.8-128-38.26-27.15-81.18-47.25-127.76-56.94-40.41-8.4-76.63-2.79-102.33,34.46-14.59,21.13-15.33,36.63,3.51,54.5,12.87,12.22,28,23.22,43.92,30.9C706.1,651.52,828,664.57,955.83,675Z" transform="translate(-248.97 -70.43)"/></svg>