<svg id="Layer_1" data-name="Layer 1" xmlns="http://www.w3.org/2000/svg" viewBox="0 0 1719.51 1662.67"><path d="M259.92,1085.13c-73.41-8.14-118.21-52.79-118-116.29.19-61.59,44.44-106.87,114.58-115.07V835.11q0-95.83,0-191.66c0-78.22,35.92-120.72,114.64-133.84,0-34.2-.05-68.71,0-103.23.05-29.64,9.08-38.95,38-39q77-.11,154,0c27.81.05,37.16,9.64,37.23,38,.08,34.55,0,69.1,0,102.71l57.32,16.39c0-30.61-1-60.86.51-91a65.93,65.93,0,0,1,10.92-32.58c19.62-28.49,40.53-56.14,62.06-83.23,9.52-12,13.34-24.08,12.77-39.21-1-26.24-.51-52.54-.19-78.81.27-22.23,10.81-32.83,33.24-32.86q181.79-.24,363.58,0c22.21,0,32.69,10.81,32.92,33.21.3,29.25-.43,58.53.43,87.76a43.15,43.15,0,0,0,7.53,22.61c21.57,30.06,44.93,58.86,65.84,89.34,6.89,10,10.83,23.63,11.74,35.92,1.79,24.23.52,48.68.52,73.48,26.79,4,47.68,2,68-19.75C1382.26,431,1439.53,375,1496.86,319.19c61.41-59.78,160.73-34,183.32,47.16,11.33,40.69,1,76.77-27.87,107.31-10.92,11.55-22.83,22.16-33.58,32.52,13,5.39,27.81,7.06,33.86,15.23,6.86,9.26,5.86,24.34,8.26,36.9a6.7,6.7,0,0,1,0,1.79c-4.38,48.44,2.76,90.85,36.71,131.51,37.31,44.66,48.11,102.85,49.7,162.25,36.59,2.81,67.48,16,90,45.28,17.43,22.65,25.43,48.35,24,76.89-3,59.94-47.12,101.19-118.46,109.19-5.69,36.34-11.57,73.23-17.24,110.16-25.36,165.07-50.13,330.23-76.19,495.19-12.92,81.78-79.66,138.43-162.34,138.52q-485.37.53-970.74,0c-84-.09-150.38-59.09-163-142.07q-44.94-294.52-90.32-589C262.29,1093.94,261.05,1089.93,259.92,1085.13Zm59.61-.24c.75,7.44,1.12,14,2.11,20.4Q366,1392.6,410.38,1679.88c8.42,54.43,51.21,91.89,106.55,91.92q484.38.33,968.75,0c56.33,0,98.74-37.23,107.4-93q37.29-240.42,74.36-480.87c5.77-37.44,11.19-74.94,16.87-113ZM716.34,454.23V853.45c2.4.55,3.53,1,4.67,1q79.68.13,159.37.15c26.84,0,56.83,7,79.63-2.74,23.49-10,40.63-35.85,59.14-56.06,6-6.58,10.64-17.23,10.71-26.05.74-99.1.47-198.21.47-297.31V454.23Zm862.25-110.71c-22.33-.21-36,10.57-49,23.65Q1251.3,645.84,972.78,924.23c-4.63,4.64-9.46,9.21-13.31,14.46-22.5,30.64-6.4,73.18,30.69,81.66,23.17,5.3,40-5.27,55.57-20.9q278.9-279.3,558.06-558.32c5-5,10.3-10.11,14.25-16,11.62-17.31,12.75-35.79,2.9-54.17C1611.42,353.23,1595.66,344.68,1578.59,343.52ZM314.09,740.58H599.24v57.59H314.8v55.29H657.51c0-77.53.82-153.88-.4-230.2-.49-30.6-26.86-54.69-57.9-55q-113.72-1-227.44,0c-30.16.28-56,24-57.27,53.69C312.83,660.62,314.09,699.34,314.09,740.58ZM906.63,912.86c-5.14-.37-8.55-.84-12-.84q-317.79,0-635.58.07a65.66,65.66,0,0,0-17.62,2.23c-28,7.91-45.77,34.82-41.85,62.76,4.09,29.17,28.51,49.48,60.71,49.5q316.89.18,633.79,0c3.73,0,7.46-.68,12.72-1.19C887.14,987.14,888,950.37,906.63,912.86Zm192.52,113.75c220,0,434.1.17,648.22-.17,32.15,0,56.75-26,56.72-57.2,0-32.49-25.62-57.14-60.46-57.17q-258.57-.24-517.14.1c-5.52,0-12.74.94-16.29,4.39C1174,951.72,1138.44,987.49,1099.15,1026.61Zm473.42-343.93c-39.84,0-76.55-.68-113.21.48-8.9.28-19.78,4.39-26.07,10.52-49.92,48.66-99,98.22-148.21,147.56-3.49,3.49-6.53,7.44-10.72,12.25h243C1519.62,791.73,1537.42,735.84,1572.57,682.68Zm-484.91,40.17,4.58,3C1109,708.33,1126,691,1142.31,673c2.59-2.83,3.38-8.17,3.38-12.35,0-39.95-.79-79.9-.5-119.85.14-18.93,11.34-29.24,30.52-30,8.61-.35,17.26-.06,26.58-.06,0-12.91.15-23,0-33.12-.26-14.86,4.34-32.63-2.16-44-15.16-26.43-35.71-49.77-55.11-75.74-18.94,25.25-36.24,48-53,71.05a23.65,23.65,0,0,0-4.1,13.08Q1087.49,582.43,1087.66,722.85ZM1115.5,225.3h-313v55.14h313Zm-27.91,113.42c-100.57,0-197.07-.05-293.58.21-3.61,0-8.44,2-10.61,4.75-12.8,16.17-25,32.82-38.11,50.29,3.64,1.08,5.19,1.94,6.74,1.94,94.22.08,188.44.2,282.65-.18,5,0,11.66-3,14.83-6.88C1061.94,373.76,1073.28,357.78,1087.59,338.72Zm602,515.18c-1.66-58.65-19-109.65-56.18-155.53-37.81,46-56.26,97-58.24,155.53ZM541.64,510V425.67h-112V510Zm1060.6,114.35v-57.7c-16.55,1.52-34.88-2-46.1,5.36-19.82,13-35.31,32.6-55.58,52.34Zm-399.6-16.21,39.18-38.79h-39.18Z" transform="translate(-141.91 -166.68)"/><path d="M485.78,1456.62c0-55.5-.11-111,0-166.5.14-53,37.12-91.85,86.8-91.44,48.9.4,85,38.93,85.09,91.36q.21,166.49,0,333c-.07,53.1-37.13,91.91-86.79,91.5-48.73-.41-84.94-39.16-85.08-91.41C485.66,1567.62,485.78,1512.12,485.78,1456.62Zm57.32-.27q0,82.41,0,164.8c0,22.7,10.55,35.8,28.36,36s28.86-13.07,28.88-35.47q.14-164.81,0-329.61c0-22.7-10.56-35.78-28.39-35.94s-28.8,13-28.85,35.45C543,1346.49,543.1,1401.42,543.1,1456.35Z" transform="translate(-141.91 -166.68)"/><path d="M944.35,1457.86c0,54.91.12,109.81,0,164.71-.15,53.32-36.74,92.14-86.34,92-49.42-.19-85.51-39.15-85.56-92.74q-.13-165.6,0-331.21c.06-53.22,36.75-92.09,86.34-91.9s85.45,38.89,85.56,92.69C944.44,1346.86,944.35,1402.36,944.35,1457.86Zm-114.64-1.24q0,82.39,0,164.8c0,22.57,10.79,35.71,28.63,35.7s28.6-13.19,28.62-35.74q.12-164.81,0-329.6c0-22.58-10.8-35.7-28.66-35.68s-28.54,13.09-28.59,35.72Q829.58,1374.22,829.71,1456.62Z" transform="translate(-141.91 -166.68)"/><path d="M1231,1456.81c0,55.49.14,111,0,166.49-.17,52.26-36.45,90.89-85.28,91.23-49.56.34-86.54-38.59-86.6-91.68q-.19-166.5,0-333c.07-52.2,36.45-90.86,85.27-91.17,49.75-.32,86.47,38.37,86.62,91.63C1231.08,1345.81,1231,1401.31,1231,1456.81Zm-114.64-.19q0,82.41,0,164.8c.05,22.58,10.79,35.72,28.63,35.7s28.6-13.19,28.61-35.75q.14-164.79,0-329.6c0-22.58-10.79-35.69-28.66-35.67s-28.53,13.09-28.58,35.72Q1116.19,1374.23,1116.31,1456.62Z" transform="translate(-141.91 -166.68)"/><path d="M1517.56,1456.49c0,55.5.13,111,0,166.5-.16,53.12-37.11,91.93-86.76,91.54-48.74-.39-85.06-39.14-85.12-91.37q-.21-166.5,0-333c.06-53.06,37.07-91.87,86.75-91.48,48.91.38,85,38.9,85.13,91.32C1517.69,1345.49,1517.56,1401,1517.56,1456.49Zm-114.64-1.67c0,55.53-.08,111.06,0,166.59,0,22.58,10.77,35.72,28.62,35.71s28.6-13.18,28.62-35.74q.12-164.79,0-329.6c0-22.58-10.79-35.7-28.65-35.68s-28.55,13.08-28.59,35.71C1402.84,1346.15,1402.92,1400.49,1402.92,1454.82Z" transform="translate(-141.91 -166.68)"/></svg>