<svg id="Layer_1" data-name="Layer 1" xmlns="http://www.w3.org/2000/svg" viewBox="0 0 1600.83 1602.31"><path d="M197.29,1003.29C198.52,600.21,490.63,265,889.72,208.68,1319.55,148,1723.1,448.83,1788.24,880c32.83,217.31-16.44,415.83-144.58,594.42-8.15,11.36-9.88,20.83-5.89,34.11,24.51,81.54,48.23,163.33,72.06,245.08,8.63,29.63.33,38-30.23,30.85-96.49-22.6-192.88-45.7-289.6-67.29-12.23-2.73-27.9-1-39.15,4.41-436.84,211.91-956.48-5-1112.22-465A775.59,775.59,0,0,1,197.29,1003.29ZM1671,1746.22c-24.57-83.85-47.32-162.8-71.07-241.44-4.76-15.77-2.32-27.48,7.46-40.59,142.13-190.5,186.95-403,135.73-634C1644.47,385.24,1165.36,125.23,737.6,282.51c-335.16,123.23-538.37,448.6-499.15,805.81,24.3,221.34,127.3,402.22,308.68,530.62,251.28,177.87,519.89,196.11,798.81,65.34a68.8,68.8,0,0,1,39.79-4.88c40.32,7.86,80.06,18.65,120.07,28.11C1559.2,1720.13,1612.65,1732.56,1671,1746.22Z" transform="translate(-197.28 -200.9)"/><path d="M1094.12,1130.34q0,194.12,0,388.21c0,29.37-3.84,33.29-32.87,33.39-43.38.14-86.76.21-130.14,0-24.74-.15-29.57-5.07-29.57-29.91q-.12-392.62,0-785.25c0-26.92,3.73-30.49,30.64-30.55q65.07-.13,130.14,0c28.22.05,31.79,3.49,31.81,31.55Q1094.2,934,1094.12,1130.34Zm-36.87,384.77V743.31H938v771.8Z" transform="translate(-197.28 -200.9)"/><path d="M997.1,646.23c-53.45-.1-96.81-43.88-96.28-97.2a97,97,0,0,1,193.92,1.26C1094.46,603.79,1051.16,646.34,997.1,646.23Zm1.77-158c-34.32-.13-62,26.57-62.69,60.45s26.49,61.65,60.7,62.08c34.37.43,62-26.19,62.57-60.21S1032.53,488.36,998.87,488.23Z" transform="translate(-197.28 -200.9)"/></svg>