<svg id="Layer_1" data-name="Layer 1" xmlns="http://www.w3.org/2000/svg" viewBox="0 0 1643.38 1775.54"><path d="M1147.33,110.81c5.29,3.2,10.75,6.16,15.84,9.65,26.91,18.46,29.89,54.83,6,80-15.35,16.17-31.72,31.36-49.79,49.1,28.47,6,53.41,9.94,77.56,16.68,330.47,92.2,539.75,305.1,609.9,640.31,92.88,443.87-200.33,874.24-646.33,964-433,87.11-865.24-194.25-960-624.85-89.31-405.93,128.85-808.43,516.05-952.1,34.64-12.85,63.58-2.28,74.77,27.31,11.09,29.31-4.05,56.78-38.24,70.13-224.47,87.67-373.49,246.6-441.37,477.55-95.82,326,59.72,680,362.81,833.76,411.56,208.83,905.07-13,1022.14-459.49,101.48-387-142.92-789.44-533.17-877.93-5.58-1.27-11.26-2.12-16.9-3.17l-4.7,4.85c8.72,6.88,18.26,12.95,26,20.81,22.74,23.1,23.2,54.82,1.95,75.74s-52.63,20.07-75.83-2.9Q1030.59,397.46,967.83,334c-24.6-24.89-24.4-54.45.43-79.52q62.21-62.79,125.12-124.87c7.57-7.44,17.42-12.58,26.22-18.78Z" transform="translate(-180.62 -110.81)"/><path d="M1535.77,1063.88c.15,295-239.64,534.6-534.7,534.27-294.26-.33-533.29-239.56-533.39-533.83-.1-295.07,239.71-534.68,534.69-534.27C1296.83,530.47,1535.62,769.45,1535.77,1063.88ZM1002.05,634.05c-237.27-.17-430,192.08-430.37,429.27s191.81,430.35,428.82,430.83c238.12.49,431.34-192.23,431.27-430.16C1431.7,826.69,1239.33,634.21,1002.05,634.05Z" transform="translate(-180.62 -110.81)"/><path d="M946.36,1341.72c-33-15.39-62.87-27.31-90.72-42.88-27.26-15.24-34.15-46.84-19-71.83,15.31-25.35,47.4-33.17,74.07-15.36,28,18.69,58.26,23.74,90.67,22,37.17-2,66.36-30.42,69.14-67.4,1.82-24.19-10.46-43.28-35.44-53.73-30.81-12.9-62-25-92.7-38.09-10.55-4.49-20.35-10.8-30.35-16.53-50.08-28.7-73.76-72.43-69.18-129.48,4.63-57.74,33.07-101.47,86.1-126.66,12.35-5.87,18.26-11,18.39-25.8.26-28.54,23.93-50.49,51.12-50.8,28.12-.32,51.27,21.87,51.81,51.63.22,11.44,4.57,15.18,14.6,19.06,17.07,6.61,34,14.57,49.28,24.57,24.9,16.29,30.61,47.62,15.08,71.59-15.36,23.71-46.81,31.08-71.68,14.68-24.33-16-49.62-20.52-77.43-13.28-20.54,5.35-29.89,20.18-33.46,39.79-3.54,19.38,7,30.78,23,38,31,13.9,61.88,28.1,93.5,40.42,69.56,27.08,110.11,80,111.51,147.64,1.46,70.63-42.39,137.9-108.49,164.76-11.09,4.51-16.06,9.25-15.84,22.1.56,33-20.54,55.91-50.08,56.87s-52.18-22.72-53.54-56C946.51,1343.63,946.27,1340.23,946.36,1341.72Z" transform="translate(-180.62 -110.81)"/></svg>