<svg id="Layer_1" data-name="Layer 1" xmlns="http://www.w3.org/2000/svg" viewBox="0 0 1891.02 1829.99"><path d="M52.6,362.86c23-28.87,39.23-29.57,66.15-2.67,108,107.92,216.21,215.54,323.59,324,28.18,28.47,59.22,42.18,99.46,33.93,22.24-4.56,45.11-6,67.54-9.71,16-2.68,29,1.84,40.17,13.09,20,20.07,40.07,40,60,60.08,13.68,13.73,17.07,28.52,7.58,46.76-2.53,4.87-.37,15.54,3.62,19.9,19.51,21.32,40.78,41,60.58,62.09,11.1,11.81,13.85,25.94,4.41,40.57-8.37,13-20.87,17.52-35.13,13.55-7.26-2-14.31-7.12-19.88-12.47-20.85-20-41.1-40.72-61.5-61.23-17.58-17.67-24.8-38.62-22.41-63.76.68-7.22-3.35-16-7.67-22.37-16.31-24.22-37.54-32.4-67.64-25.18-24,5.77-50,6.42-74.89,5.13-35.05-1.83-64.76-18.49-89.45-43.12Q237.21,572,67.73,402c-6-6-10.13-13.71-15.13-20.63Z" transform="translate(-52.6 -87.03)"/><path d="M1764.16,213.27c69.92.34,118.77,12.24,160.91,44.89,23.76,18.41,24.48,37,3.38,59-1.71,1.77-3.46,3.5-5.2,5.24q-772.93,773-1545.76,1546.06c-41.28,41.31-88.32,59.11-145.62,41.5-85.81-26.37-119.25-136.49-62.8-206.3a336.33,336.33,0,0,1,23.52-26q234.26-234.46,468.44-469c39.32-39.6,82.58-55.84,136.85-36.42,4.67,1.68,13.15-1,17.11-4.69,17.19-15.83,33-33.16,50-49.15,8.81-8.26,7.76-14.21.77-23.25-39.43-51-37.26-109.67,8.13-155.06,184.55-184.51,368.74-369.4,555.36-551.8C1500,319.21,1581,262.49,1676.94,232.23,1710.62,221.61,1746.21,217.05,1764.16,213.27Zm93.07,81.46c-39.56-19.65-95.1-20.34-149.33-3.59-90.35,27.92-166.66,80-232.92,144.82-185.24,181.13-368,364.79-551.53,547.65-24.49,24.39-24.81,46.62-3,75.19,26.35,34.46,24.9,70.66-4.73,101.49q-28.14,29.28-57.43,57.44c-22.22,21.45-48.32,29.13-77.9,17.91-28.32-10.74-49.9-3.42-71.16,18Q473.79,1490.73,237,1726.53c-6.07,6.09-12.32,12.18-17.37,19.08-27.22,37.15-9.08,89.61,35.16,102.61,31.34,9.21,54.31-4.43,75.65-25.78q757-757.43,1514.22-1514.56C1848.53,304,1852.23,300,1857.23,294.73Z" transform="translate(-52.6 -87.03)"/><path d="M1753.18,1917c-41.49-.82-74-16.1-101.26-43.43q-277.38-277.51-554.84-555c-18.87-18.88-20.64-39-5.51-53.23,15-14.1,33.77-11.48,53.24,8q272.31,272.17,544.53,544.43c6.52,6.52,13,13.22,20.17,18.92a66.41,66.41,0,0,0,94.41-91.91c-5.12-6.86-11.36-12.93-17.44-19Q1513.65,1452.85,1240.77,1180c-5.63-5.63-11.53-11.28-15.86-17.87-9.3-14.16-7.82-28.61,3.88-40.42s26.14-13.1,40.42-4.19c5.65,3.52,10.47,8.52,15.23,13.28q276.19,276.11,552.27,552.33c57.07,57.12,62.28,130.67,13.09,188.6C1824,1902.07,1789.81,1915.51,1753.18,1917Z" transform="translate(-52.6 -87.03)"/><path d="M752.86,555.93c-2.55,19.35-7,46.69-9.26,74.2-.63,7.73,3.28,17.45,8.28,23.72,14.63,18.32,30.3,31.79,58.47,28.16,14-1.81,32.48,10.19,44.92,20.7,23.88,20.18,45.14,43.52,67,66,16.55,17,17.53,36.95,3.38,50.58s-33.23,12-50.6-5c-20.23-19.78-40.3-39.74-60-60.1-7.1-7.35-13.13-9.4-22.25-3.25-15.77,10.63-30.58,6.47-43.31-5.94-21.16-20.6-41.85-41.67-62.79-62.49-11.37-11.31-15-24.59-12.36-40.45,3.94-23.64,6.17-47.57,10.46-71.13,6.68-36.69-5.69-65.74-31.54-91.44q-162.93-162-325.06-324.87c-5.19-5.2-10.46-10.5-14.71-16.45-9.93-13.89-8.61-27.86,2.23-40.56,10.4-12.17,27.47-14,41.71-4.75a88.91,88.91,0,0,1,14,11.89Q537.35,270.43,703.1,436.17C734.09,467.09,751.75,503.63,752.86,555.93Z" transform="translate(-52.6 -87.03)"/><path d="M167.49,251.59c12,7.12,22.3,10.74,29.27,17.65q138.06,137,275.2,274.92c16.29,16.37,16.81,35.21,3.2,49.16-13.35,13.7-33.18,13.43-49.07-2.39Q287.6,453.07,149.68,314.62c-10.72-10.75-17.17-24.39-8.63-38.25C146.89,266.89,157.69,260.48,167.49,251.59Z" transform="translate(-52.6 -87.03)"/><path d="M569.55,479.68c-.4,30.57-27,46.45-47.82,34.63-6.8-3.85-12.64-9.7-18.25-15.3Q372.34,368.12,241.4,237a120.55,120.55,0,0,1-11.24-12.16c-10.94-14.43-10.15-31.59,1.67-43.54s28.79-13,43.56-2.2c4.43,3.24,8.32,7.27,12.22,11.17Q419.33,321.92,550.79,453.8C559.45,462.53,565.44,473.91,569.55,479.68Z" transform="translate(-52.6 -87.03)"/></svg>