<svg id="Layer_1" data-name="Layer 1" xmlns="http://www.w3.org/2000/svg" viewBox="0 0 1408.64 1776.25"><path d="M647.32,509.32c-8-125.4,29-231.9,124-314,65.92-57,143.56-85.6,230.76-85.2,106.28.49,195.56,41,266.27,120.23,70.36,78.85,95.19,173.3,88.44,279,44.81,0,87.2-.6,129.57.12,89.27,1.51,164.08,71.43,171.15,160.29,3.27,41.17,4.85,82.48,6.81,123.74q14.45,304,28.64,607.93c4.63,99.17,9.72,198.33,13.27,297.54,3.8,106.26-74.13,187-180.52,187.12q-523.68.51-1047.35,0c-106.29-.1-185-81.17-180.45-187.19,9-210.07,19.48-420.08,29.28-630.12,5.46-117,10.57-234.08,16.32-351.1,1.21-24.56,2.07-49.56,7.38-73.41,17.21-77.31,87.63-133.54,166.92-134.81C559.74,508.76,601.67,509.32,647.32,509.32ZM1002.1,1767.77q260,0,520,0c43.71,0,67.18-24.66,65.63-68.4-.67-19.1-1.28-38.21-2.18-57.31q-14.13-300.29-28.35-600.57c-5.56-117.65-10.73-235.33-16.88-353-2.23-42.66-25.87-63.45-68.06-63.27q-138.78.6-277.57,1.07-332.16.9-664.33,1.65c-41.52.1-63.94,20.49-66.54,62.49-3,48-4.48,96.09-6.74,144.14q-20.23,430.56-40.48,861.14c-2.27,48.73,20.33,72,69.19,72Q744,1767.8,1002.1,1767.77ZM1238,508.5c8.57-107.91-24.75-195.34-119.82-249-87.37-49.36-176-43.14-257.14,16.11C782.79,332.73,757.63,413.9,766.53,508.5Z" transform="translate(-297.76 -110.07)"/><path d="M1002.45,1107.14C836.37,1105.31,694,992.84,655.8,831.9c-7.59-32,2.14-57.86,27.05-71.85,23.58-13.25,55.66-9.56,72.72,11.05,8.23,9.95,13.55,23.29,17.12,36C799.2,901.33,858.78,961.87,954.54,984c120.42,27.75,244.37-47.73,276.88-167,1.46-5.34,2.65-10.75,4.07-16.1,9.48-35.76,39.51-54.69,74.11-46.76,32.24,7.38,50.93,39.59,42.21,74.85-29.5,119.38-100.87,203.56-214.45,250.87-22,9.16-45.55,15.24-68.95,20C1046.82,1104.17,1024.47,1104.83,1002.45,1107.14Z" transform="translate(-297.76 -110.07)"/></svg>