<?xml version="1.0" encoding="utf-8"?>
<!-- Generator: Adobe Illustrator 26.0.1, SVG Export Plug-In . SVG Version: 6.00 Build 0)  -->
<svg version="1.1" id="Layer_1" xmlns="http://www.w3.org/2000/svg" xmlns:xlink="http://www.w3.org/1999/xlink" x="0px" y="0px"
	 viewBox="0 0 2000 2000" style="enable-background:new 0 0 2000 2000;" xml:space="preserve">
<g>
	<path d="M1942.64,933.36c0,44.19,0,88.37,0,132.56c-4.05,29.62-7.14,59.41-12.29,88.85c-36.98,211.65-133.5,391.5-291.15,537.51
		c-134.51,124.57-292.5,203.35-473.26,235.42c-33,5.86-66.35,9.79-99.53,14.6c-44.18,0-88.36,0-132.54,0
		c-5.29-1.21-10.52-2.78-15.88-3.57c-38.13-5.62-76.79-8.74-114.34-16.97c-223.33-48.95-407.01-163.02-547.14-343.56
		C94.04,1368.86,32.07,1130.49,66.61,868.41c23.96-181.84,96.43-344.25,218.08-481.67C510.03,132.17,793.97,25.61,1131.03,66.05
		c156.68,18.79,299.15,78.45,425.73,172.89c200.74,149.77,325.43,347.9,371.15,594.75C1934.02,866.69,1937.79,900.12,1942.64,933.36
		z M733.6,723.84c0,8.6,0,15.18,0,21.77c0,67.48,0,134.95,0,202.43c0,49.69-0.17,99.38,0.06,149.06
		c0.17,36.61,14.67,50.85,51.58,51.38c12.88,0.19,25.76,0.07,38.64,0.04c44.64-0.12,58.5-13.84,58.51-58
		c0.02-115.33,0.01-230.65,0.01-345.98c0-6.48,0-12.97,0-20.71c36.19,0,69.84-0.52,103.46,0.19c20.1,0.43,36.91-4.63,45.64-23.85
		c8.64-19.01,2.16-35.33-11.19-50.4c-59.38-67.02-118.33-134.41-177.6-201.53c-22.77-25.79-47.15-26.04-70.19-0.04
		c-60.19,67.94-119.87,136.33-179.94,204.38c-12.54,14.21-17.05,29.77-9.11,47.31c7.97,17.62,22.68,24.29,41.7,24.05
		C660.08,723.53,695.01,723.84,733.6,723.84z M1117.88,1275.43c-36.5,0-70.18,0.5-103.84-0.19c-20.15-0.41-36.8,4.86-45.37,24.21
		c-8.49,19.16-1.67,35.28,11.66,50.3c58.61,66.06,116.81,132.49,175.2,198.75c25.29,28.7,48.7,29.3,73.86,0.9
		c58.57-66.1,116.6-132.67,175.16-198.78c13.63-15.39,21.41-31.66,12.11-51.72c-9.38-20.23-27.06-24.11-47.54-23.67
		c-33.47,0.72-66.97,0.2-102.44,0.2c0-9.62,0-16.85,0-24.08c0-109.19,0-218.38-0.01-327.57c0-9.81,0.27-19.65-0.23-29.44
		c-1.37-26.86-15.82-41.79-42.68-43.17c-17.13-0.88-34.33-0.52-51.5-0.39c-39.53,0.29-54.34,15.18-54.36,54.66
		c-0.05,115.94-0.02,231.88-0.02,347.82C1117.88,1259.89,1117.88,1266.51,1117.88,1275.43z"/>
</g>
</svg>
