<svg id="Layer_1" data-name="Layer 1" xmlns="http://www.w3.org/2000/svg" viewBox="0 0 1752.89 1287.45"><path d="M121.7,1073.62c11.2-16.63,19.77-36.12,34.14-49.29,29.13-26.73,74.23-26,105.71-1.95a209.4,209.4,0,0,1,20.28,18.34q188.93,188.71,377.67,377.63c4.83,4.83,8.78,10.53,16.61,20.05,6.26-8.68,9.86-15.42,15-20.6Q1203.61,905,1716.23,392.43c26.41-26.43,55.85-41.19,93.78-31,60.76,16.33,84.63,89,45.45,138.28a212.2,212.2,0,0,1-16.1,17.7q-546.45,546.56-1093,1093c-36.74,36.74-75.91,45.07-114,23.3-9.74-5.57-18.51-13.36-26.51-21.34q-226-225.53-451.15-451.83c-14.24-14.38-22.18-35-33-52.71Z" transform="translate(-121.7 -358.18)"/></svg>